<svg xmlns="http://www.w3.org/2000/svg" viewBox="0 0 100 100">
  <rect width="100%" height="100%" fill="#090d16" rx="20"/>
  <path d="M50 56c-6.64 0-12 5.36-12 12s5.36 12 12 12 12-5.36 12-12-5.36-12-12-12zm-18-8c-3.32 0-6 2.68-6 6s2.68 6 6 6 6-2.68 6-6-2.68-6-6-6zm36 0c-3.32 0-6 2.68-6 6s2.68 6 6 6 6-2.68 6-6-2.68-6-6-6zm-29.2-18c-2.48 0-4.48 2-4.48 4.48s2 4.5 4.48 4.5 4.48-2.02 4.48-4.5-2-4.48-4.48-4.48zm22.4 0c-2.48 0-4.48 2-4.48 4.48s2 4.5 4.48 4.5 4.48-2.02 4.48-4.5-2-4.48-4.48-4.48z" fill="#d8b76c"/>
</svg>
